<svg xmlns="http://www.w3.org/2000/svg" viewBox="0 0 720 200" role="img" aria-label="Ghaf BIX — Business Intelligence">
  <defs>
    <linearGradient id="bg" x1="0" y1="0" x2="1" y2="1">
      <stop offset="0" stop-color="#003B4D"/>
      <stop offset=".55" stop-color="#005A73"/>
      <stop offset="1" stop-color="#008B8B"/>
    </linearGradient>
    <linearGradient id="sheen" x1="0" y1="0" x2="0" y2="1">
      <stop offset="0" stop-color="#ffffff" stop-opacity=".14"/>
      <stop offset="1" stop-color="#ffffff" stop-opacity="0"/>
    </linearGradient>
    <linearGradient id="bix" x1="0" y1="0" x2="1" y2="0">
      <stop offset="0" stop-color="#006884"/>
      <stop offset="1" stop-color="#008B8B"/>
    </linearGradient>
  </defs>

  <!-- mark -->
  <g transform="translate(20,20) scale(0.625)">
    <rect width="256" height="256" rx="58" fill="url(#bg)"/>
    <rect width="256" height="128" rx="58" fill="url(#sheen)"/>
    <circle cx="212" cy="42" r="60" fill="none" stroke="#A7EBF2" stroke-opacity=".15" stroke-width="1.5"/>
    <g>
      <circle cx="92"  cy="58" r="16" fill="#ffffff"/>
      <circle cx="128" cy="54" r="20" fill="#ffffff"/>
      <circle cx="164" cy="58" r="16" fill="#ffffff"/>
      <circle cx="64"  cy="76" r="16" fill="#A7EBF2"/>
      <circle cx="100" cy="78" r="19" fill="#A7EBF2"/>
      <circle cx="156" cy="78" r="19" fill="#A7EBF2"/>
      <circle cx="192" cy="76" r="16" fill="#A7EBF2"/>
      <circle cx="52"  cy="94" r="11" fill="#54ACBF"/>
      <circle cx="84"  cy="98" r="14" fill="#54ACBF"/>
      <circle cx="128" cy="98" r="16" fill="#C6E2E9"/>
      <circle cx="172" cy="98" r="14" fill="#54ACBF"/>
      <circle cx="204" cy="94" r="11" fill="#54ACBF"/>
    </g>
    <path d="M127 116 C112 110 100 102 94 94"  stroke="#ffffff" stroke-width="7" stroke-linecap="round" fill="none"/>
    <path d="M131 110 C146 104 156 98 162 90"  stroke="#ffffff" stroke-width="7" stroke-linecap="round" fill="none"/>
    <path d="M120 192 C123 160 126 134 127 100 L133 100 C134 134 137 160 140 192 Z" fill="#ffffff"/>
    <path d="M86 204 H170" stroke="#54ACBF" stroke-width="9" stroke-linecap="round"/>
  </g>

  <!-- wordmark -->
  <g font-family="Inter, 'Segoe UI', Arial, sans-serif">
    <text x="212" y="106" font-size="64" font-weight="800" letter-spacing="-1.5">
      <tspan fill="#003B4D">Ghaf</tspan><tspan dx="14" fill="url(#bix)">BIX</tspan>
    </text>
    <text x="215" y="142" font-size="17" font-weight="700" letter-spacing="6" fill="#3d5e6c">BUSINESS INTELLIGENCE</text>
  </g>
</svg>
